<svg width="100" height="96" viewBox="0 0 100 96" fill="none" xmlns="http://www.w3.org/2000/svg">
<g filter="url(#filter0_d_165_8586)">
<path d="M4.08 75.5758H6.048L8.272 84.4718H8.336L10.672 75.5758H12.496L14.832 84.4718H14.896L17.12 75.5758H19.088L15.792 86.9998H13.936L11.616 78.1838H11.552L9.232 86.9998H7.36L4.08 75.5758ZM61.2469 75.5758H63.3109L67.2949 84.7278H67.3429L71.3109 75.5758H73.3749V86.9998H71.6309V78.8398H71.5669L68.0629 86.9998H66.5589L63.0549 78.8398H62.9909V86.9998H61.2469V75.5758Z" fill="#30ABF6"/>
<path d="M23.5399 78.5038C24.7559 78.5038 25.6519 78.8078 26.2279 79.4158C26.7239 79.9438 26.9799 80.7118 26.9799 81.7198V86.9998H25.4119V85.8318C25.0919 86.2478 24.6919 86.5838 24.2119 86.8238C23.6679 87.0798 23.0279 87.2238 22.2919 87.2238C21.4279 87.2238 20.7559 86.9998 20.2759 86.5678C19.7479 86.1358 19.4919 85.5758 19.4919 84.8878C19.4919 83.9598 19.8599 83.2398 20.5959 82.7438C21.2679 82.2638 22.2279 82.0238 23.4439 81.9918L25.2999 81.9438V81.6078C25.2999 80.4558 24.6759 79.8798 23.4279 79.8798C22.8999 79.8798 22.4679 79.9758 22.1479 80.1678C21.7639 80.3918 21.5239 80.7278 21.4279 81.1918L19.7479 81.0478C19.9239 80.1518 20.3719 79.4798 21.0759 79.0638C21.6839 78.6798 22.5159 78.5038 23.5399 78.5038ZM25.2999 83.1758L23.5559 83.2238C22.0039 83.2558 21.2359 83.7998 21.2359 84.8238C21.2359 85.1438 21.3639 85.3998 21.6359 85.6078C21.8919 85.8158 22.2439 85.9278 22.6759 85.9278C23.3959 85.9278 24.0039 85.7038 24.5159 85.2718C25.0279 84.8398 25.2999 84.2958 25.2999 83.6558V83.1758ZM32.7933 78.5038C34.8413 78.5038 35.8813 79.6238 35.8813 81.8958V86.9998H34.1853V82.0398C34.1853 80.6318 33.5293 79.9278 32.2493 79.9278C31.7693 79.9278 31.3373 80.0878 30.9853 80.4398C30.6013 80.8238 30.3613 81.3518 30.2973 82.0238V86.9998H28.6013V78.7278H30.2973V79.7518C30.6173 79.3358 30.9853 79.0318 31.4013 78.8238C31.8173 78.5998 32.2813 78.5038 32.7933 78.5038ZM43.452 75.3518H45.148V86.9998H43.564V86.0078C42.988 86.8078 42.124 87.2238 41.004 87.2238C39.788 87.2238 38.828 86.7918 38.14 85.9278C37.5 85.1278 37.18 84.0878 37.18 82.8238C37.18 81.6078 37.484 80.5998 38.124 79.7998C38.796 78.9358 39.74 78.5038 40.924 78.5038C41.932 78.5038 42.78 78.9838 43.452 79.9598V75.3518ZM41.308 79.8798C40.476 79.8798 39.852 80.1518 39.452 80.7278C39.1 81.2078 38.924 81.9118 38.924 82.8238C38.924 83.7358 39.084 84.4398 39.42 84.9518C39.804 85.5438 40.428 85.8478 41.26 85.8478C41.996 85.8478 42.556 85.5438 42.972 84.9678C43.324 84.4398 43.5 83.7678 43.5 82.9358V82.7918C43.5 81.8958 43.276 81.1758 42.86 80.6318C42.444 80.1198 41.932 79.8798 41.308 79.8798ZM50.2465 78.5038C51.5905 78.5038 52.6305 78.9518 53.3345 79.8798C53.9745 80.7118 54.3105 81.8638 54.3265 83.3358H48.0545C48.1185 84.1358 48.3265 84.7598 48.7105 85.1918C49.0945 85.6078 49.6225 85.8318 50.2945 85.8318C50.8865 85.8318 51.3665 85.6878 51.7345 85.4158C52.0225 85.1918 52.2625 84.8238 52.4865 84.3438H54.1825C53.9905 85.1118 53.6225 85.7678 53.0465 86.2798C52.3265 86.9038 51.4145 87.2238 50.3105 87.2238C49.0945 87.2238 48.1185 86.8398 47.4145 86.0878C46.6465 85.2878 46.2625 84.2158 46.2625 82.8558C46.2625 81.6238 46.6145 80.5998 47.3505 79.7678C48.0545 78.9198 49.0305 78.5038 50.2465 78.5038ZM50.2945 79.8958C49.6545 79.8958 49.1585 80.0718 48.7745 80.4558C48.4225 80.8238 48.1825 81.3518 48.0865 82.0558H52.5505C52.3905 80.6158 51.6385 79.8958 50.2945 79.8958ZM59.2938 78.5038C59.7098 78.5038 60.0778 78.5678 60.3658 78.7118V80.4078C59.9498 80.2798 59.5498 80.2318 59.1658 80.2318C58.6538 80.2318 58.1898 80.4398 57.7898 80.8558C57.3578 81.3038 57.1498 81.8958 57.1498 82.6158V86.9998H55.4538V78.7278H57.1498V79.9758C57.3578 79.5278 57.6298 79.1918 57.9498 78.9678C58.3338 78.6478 58.7818 78.5038 59.2938 78.5038ZM76.3419 75.4158C76.6779 75.4158 76.9659 75.5118 77.1899 75.7358C77.4139 75.9438 77.5259 76.2158 77.5259 76.5518C77.5259 76.8878 77.3979 77.1598 77.1739 77.3838C76.9499 77.5918 76.6619 77.7038 76.3419 77.7038C76.0059 77.7038 75.7339 77.5918 75.5099 77.3838C75.2859 77.1598 75.1739 76.8718 75.1739 76.5518C75.1739 76.2158 75.2859 75.9438 75.5099 75.7358C75.7339 75.5118 76.0059 75.4158 76.3419 75.4158ZM75.4939 78.7278H77.1899V86.9998H75.4939V78.7278ZM83.3576 78.5038C85.4056 78.5038 86.4456 79.6238 86.4456 81.8958V86.9998H84.7496V82.0398C84.7496 80.6318 84.0936 79.9278 82.8136 79.9278C82.3336 79.9278 81.9016 80.0878 81.5496 80.4398C81.1656 80.8238 80.9256 81.3518 80.8616 82.0238V86.9998H79.1656V78.7278H80.8616V79.7518C81.1816 79.3358 81.5496 79.0318 81.9656 78.8238C82.3816 78.5998 82.8456 78.5038 83.3576 78.5038ZM94.0164 75.3518H95.7124V86.9998H94.1284V86.0078C93.5524 86.8078 92.6884 87.2238 91.5684 87.2238C90.3524 87.2238 89.3924 86.7918 88.7044 85.9278C88.0644 85.1278 87.7444 84.0878 87.7444 82.8238C87.7444 81.6078 88.0484 80.5998 88.6884 79.7998C89.3604 78.9358 90.3044 78.5038 91.4884 78.5038C92.4964 78.5038 93.3444 78.9838 94.0164 79.9598V75.3518ZM91.8724 79.8798C91.0404 79.8798 90.4164 80.1518 90.0164 80.7278C89.6644 81.2078 89.4884 81.9118 89.4884 82.8238C89.4884 83.7358 89.6484 84.4398 89.9844 84.9518C90.3684 85.5438 90.9924 85.8478 91.8244 85.8478C92.5604 85.8478 93.1204 85.5438 93.5364 84.9678C93.8884 84.4398 94.0644 83.7678 94.0644 82.9358V82.7918C94.0644 81.8958 93.8404 81.1758 93.4244 80.6318C93.0084 80.1198 92.4964 79.8798 91.8724 79.8798Z" fill="black"/>
</g>
<path d="M82 -0.000243678H40.2609L18 15.9998H59.8867L82 -0.000243678Z" fill="#30ABF6"/>
<path d="M82 31.9998H40.2609L18 47.9998H59.8867L82 31.9998Z" fill="#30ABF6"/>
<path d="M82 31.9998H66.5L18 47.9998H59.8867L82 31.9998Z" fill="#C9F8FF"/>
<path d="M82 63.9998H40.2609L18 47.9998H59.8867L82 63.9998Z" fill="#30ABF6"/>
<path d="M82 31.9998H40.2609L18 15.9998H59.8867L82 31.9998Z" fill="#30ABF6"/>
<path d="M82 31.9998H66.5002L18 15.9998H59.8867L82 31.9998Z" fill="#C9F8FF"/>
<defs>
<filter id="filter0_d_165_8586" x="0.0800781" y="75.3518" width="99.6328" height="19.8721" filterUnits="userSpaceOnUse" color-interpolation-filters="sRGB">
<feFlood flood-opacity="0" result="BackgroundImageFix"/>
<feColorMatrix in="SourceAlpha" type="matrix" values="0 0 0 0 0 0 0 0 0 0 0 0 0 0 0 0 0 0 127 0" result="hardAlpha"/>
<feOffset dy="4"/>
<feGaussianBlur stdDeviation="2"/>
<feComposite in2="hardAlpha" operator="out"/>
<feColorMatrix type="matrix" values="0 0 0 0 0.388235 0 0 0 0 0.694118 0 0 0 0 0.94902 0 0 0 0.15 0"/>
<feBlend mode="normal" in2="BackgroundImageFix" result="effect1_dropShadow_165_8586"/>
<feBlend mode="normal" in="SourceGraphic" in2="effect1_dropShadow_165_8586" result="shape"/>
</filter>
</defs>
</svg>
